<?xml version="1.0" encoding="UTF-8"?>
<svg width="27px" height="39px" viewBox="0 0 27 39" version="1.1" xmlns="http://www.w3.org/2000/svg" xmlns:xlink="http://www.w3.org/1999/xlink">
    <!-- Generator: Sketch 46.2 (44496) - http://www.bohemiancoding.com/sketch -->
    <title>Grouproy-logo</title>
    <desc>Created with Sketch.</desc>
    <defs></defs>
    <g id="Welcome" stroke="none" stroke-width="1" fill="none" fill-rule="evenodd" stroke-linecap="round" fill-opacity="0" stroke-linejoin="round">
        <g id="Desktop-HD" transform="translate(-376.000000, -51.000000)" stroke="#D68A52" stroke-width="2" fill="#000000">
            <g id="Group" transform="translate(388.500000, 71.500000) rotate(-270.000000) translate(-388.500000, -71.500000) translate(369.000000, 58.000000)">
                <path d="M6.21164324,-6.01835443 L13.5618979,-6.01835443 C15.6444805,-6.01835443 17.6555717,-5.85670708 19.595232,-5.53340755 C21.5348922,-5.21010801 23.2601431,-4.65710394 24.7710363,-3.87437875 C26.2819295,-3.09165355 27.4865426,-2.03669194 28.3849115,-0.709462263 C29.2832805,0.617767414 29.7324582,2.30230289 29.7324582,4.3441947 C29.7324582,6.96462252 28.8647285,9.1596233 27.129243,10.9292629 C25.3937575,12.6989024 22.9130714,13.7708796 19.6871102,14.1452264 L30.0604,28.5382628 L30.0604,28.5382628 C30.3833138,28.9863087 30.2818741,29.611295 29.8338282,29.9342088 C29.6635671,30.0569187 29.4590139,30.1229499 29.2491411,30.1229499 L20.2933212,30.1229499 L20.2933212,30.1229499 C19.9563261,30.1229499 19.6419959,29.9532155 19.4571597,29.6714332 L10.6668283,16.2705915 L10.6668283,16.2705915 C10.0684343,15.358341 9.05081235,14.8088379 7.95981447,14.8088379 L7.95981447,14.8088379 L7.95981447,14.8088379 C6.99432616,14.8088379 6.21164324,15.5915208 6.21164324,16.5570091 L6.21164324,30.1229499" id="R-Copy" transform="translate(18.230429, 12.052298) rotate(-90.000000) translate(-18.230429, -12.052298) "></path>
            </g>
        </g>
    </g>
</svg>