<svg width="107" height="59" viewBox="0 0 107 59" version="1.1" xmlns="http://www.w3.org/2000/svg" xmlns:xlink="http://www.w3.org/1999/xlink">
<title>Life in Cartoon Moti</title>
<desc>Created using Figma</desc>
<g id="Canvas" transform="translate(102 295)">
<g id="Life in Cartoon Moti">
<use xlink:href="#path0_fill" transform="matrix(0.99863 -0.052336 0.052336 0.99863 -101.512 -289.198)" fill="#FFD5B7"/>
</g>
</g>
<defs>
<path id="path0_fill" fill-rule="evenodd" d="M 5.7207e-06 47.3036L 1.18342 46.6945L 7.21726 50.8799L 10.0443 49.4248L 11.1781 50.2113L 7.16773 52.2756L 5.7207e-06 47.3036ZM 7.07026 46.4538L 8.19739 45.8736L 13.0566 49.2445L 11.9295 49.8246L 7.07026 46.4538ZM 5.26038 45.3913C 5.06465 45.2555 4.96154 45.1026 4.95106 44.9327C 4.94057 44.7627 5.03866 44.6246 5.24531 44.5182C 5.45195 44.4119 5.6949 44.3704 5.97416 44.3939C 6.25342 44.4173 6.49766 44.5016 6.70688 44.6468C 6.91611 44.7919 7.01945 44.9487 7.01691 45.1172C 7.01438 45.2857 6.90981 45.4231 6.70316 45.5295C 6.49652 45.6358 6.25332 45.6733 5.97358 45.642C 5.69384 45.6106 5.45611 45.527 5.26038 45.3913ZM 10.7191 45.7501L 9.86432 46.1901L 8.89246 45.5159L 9.74726 45.076L 9.02848 44.5774C 8.73826 44.376 8.48961 44.1676 8.28251 43.9521C 8.0754 43.7365 7.94104 43.5223 7.87946 43.3093C 7.81789 43.0964 7.8439 42.8893 7.95749 42.6881C 8.07109 42.4869 8.30324 42.2961 8.65394 42.1156C 8.77919 42.0511 8.88916 42.0007 8.98383 41.9642C 9.0785 41.9277 9.18315 41.8963 9.29783 41.8699L 10.2553 42.6248C 10.1724 42.643 10.0882 42.666 10.0027 42.6937C 9.9172 42.7214 9.83374 42.7562 9.75233 42.7981C 9.5895 42.8819 9.49173 42.973 9.45902 43.0713C 9.42631 43.1697 9.43735 43.2701 9.4921 43.3724C 9.54686 43.4747 9.62896 43.5751 9.73841 43.6738C 9.84786 43.7724 9.96333 43.8638 10.0848 43.9481L 10.8744 44.4958L 11.9171 43.9592L 12.889 44.6334L 11.8463 45.17L 15.7335 47.8667L 14.6064 48.4468L 10.7191 45.7501ZM 17.731 43.3158C 17.5758 43.2081 17.407 43.1156 17.2246 43.0383C 17.0421 42.9609 16.8531 42.9073 16.6574 42.8775C 16.4618 42.8477 16.2646 42.8452 16.0658 42.8701C 15.867 42.8949 15.6768 42.954 15.4952 43.0475C 15.157 43.2215 14.9802 43.4451 14.9647 43.7181C 14.9492 43.9911 15.101 44.2534 15.4201 44.5051L 17.731 43.3158ZM 19.4049 43.1149L 19.5669 43.2273C 19.6209 43.2647 19.6717 43.3038 19.7195 43.3445L 16.2907 45.109C 16.4787 45.2243 16.6812 45.3137 16.8983 45.3773C 17.1154 45.4409 17.3358 45.4784 17.5594 45.4897C 17.783 45.501 18.0003 45.4891 18.2113 45.4539C 18.4223 45.4187 18.6093 45.3592 18.7721 45.2754C 19.0539 45.1304 19.2362 44.9692 19.319 44.7921C 19.4018 44.6149 19.408 44.4262 19.3375 44.226L 20.7369 44.2887C 20.9401 44.967 20.6189 45.5236 19.7735 45.9587C 19.4228 46.1392 19.0412 46.2643 18.6288 46.3338C 18.2164 46.4033 17.7942 46.4188 17.3622 46.3802C 16.9302 46.3416 16.4962 46.2448 16.0603 46.09C 15.6244 45.9351 15.2073 45.7196 14.8091 45.4434C 14.4177 45.1718 14.1228 44.8934 13.9244 44.6082C 13.7259 44.323 13.6201 44.0471 13.6069 43.7807C 13.5938 43.5143 13.6704 43.2629 13.8367 43.0264C 14.0031 42.7899 14.2554 42.5846 14.5935 42.4106C 14.9067 42.2495 15.252 42.139 15.6295 42.0793C 16.007 42.0196 16.4026 42.0159 16.816 42.0681C 17.2295 42.1204 17.6547 42.2318 18.0916 42.4025C 18.5285 42.5731 18.9663 42.8106 19.4049 43.1149ZM 20.372 39.6083L 21.4994 39.0282L 26.3581 42.399L 25.2307 42.9792L 20.372 39.6083ZM 18.5623 38.5458C 18.3665 38.4101 18.2635 38.2572 18.2531 38.0873C 18.2426 37.9173 18.3407 37.7792 18.5474 37.6728C 18.7541 37.5665 18.9971 37.525 19.2764 37.5485C 19.5557 37.5719 19.7999 37.6562 20.0091 37.8014C 20.2183 37.9465 20.3217 38.1033 20.3191 38.2718C 20.3165 38.4403 20.2118 38.5777 20.0051 38.684C 19.7984 38.7904 19.5552 38.8279 19.2755 38.7965C 18.9957 38.7652 18.758 38.6816 18.5623 38.5458ZM 22.8712 38.3224L 23.9422 37.7713L 24.7217 38.312C 24.5978 38.0823 24.5573 37.8442 24.6191 37.5881C 24.681 37.3321 24.8811 37.117 25.2193 36.943C 25.5137 36.7915 25.8215 36.7004 26.1427 36.6697C 26.4639 36.639 26.7829 36.6522 27.0998 36.7093C 27.4167 36.7664 27.7245 36.8608 28.0234 36.9924C 28.3222 37.1241 28.5964 37.2765 28.8461 37.4497L 31.8826 39.5565L 30.7551 40.1366L 28.0627 38.2686C 27.921 38.1703 27.7632 38.0721 27.5892 37.9741C 27.4152 37.8761 27.2344 37.7999 27.0469 37.7455C 26.8595 37.6911 26.6704 37.6641 26.4798 37.6643C 26.2892 37.6645 26.1031 37.7113 25.9215 37.8048C 25.7398 37.8982 25.622 38.0057 25.5681 38.1273C 25.5142 38.2488 25.5056 38.3734 25.5425 38.5012C 25.5795 38.629 25.6553 38.7592 25.77 38.8918C 25.8847 39.0243 26.0231 39.1468 26.185 39.2592L 28.8572 41.1131L 27.7298 41.6932L 22.8712 38.3224ZM 34.9196 31.3655C 34.4878 31.2778 34.0719 31.2656 33.6718 31.3287C 33.2718 31.3918 32.9371 31.4926 32.6677 31.6312C 32.3232 31.8085 32.0774 32.0164 31.9304 32.2551C 31.7835 32.4937 31.7263 32.7474 31.7588 33.016C 31.7914 33.2846 31.9114 33.5571 32.119 33.8335C 32.3265 34.11 32.6158 34.3769 32.9869 34.6344C 33.3783 34.906 33.7892 35.1267 34.2195 35.2967C 34.6499 35.4666 35.0802 35.5815 35.5103 35.6415C 35.9404 35.7015 36.3574 35.7051 36.7613 35.6522C 37.1651 35.5994 37.5393 35.4844 37.8839 35.3071C 38.241 35.1234 38.4814 34.908 38.6053 34.6608C 38.7291 34.4137 38.7508 34.16 38.6703 33.8997L 40.338 33.9101C 40.4417 34.3378 40.3901 34.7373 40.1834 35.1086C 39.9767 35.4799 39.5883 35.8122 39.0182 36.1055C 38.4982 36.373 37.9277 36.5544 37.3068 36.6496C 36.6859 36.7448 36.0518 36.7572 35.4046 36.6866C 34.7573 36.6159 34.1149 36.4654 33.4773 36.235C 32.8397 36.0045 32.2408 35.695 31.6808 35.3064C 31.1072 34.9085 30.6817 34.5016 30.4043 34.0858C 30.1268 33.6701 29.9875 33.2668 29.9862 32.8761C 29.9849 32.4854 30.1159 32.1164 30.3789 31.7691C 30.642 31.4217 31.0305 31.116 31.5442 30.8517C 31.7572 30.7421 32.0015 30.6429 32.2772 30.5541C 32.5529 30.4653 32.8428 30.3977 33.1469 30.3513C 33.451 30.3049 33.7645 30.2802 34.0874 30.2772C 34.4104 30.2741 34.7321 30.3043 35.0526 30.3677L 34.9196 31.3655ZM 44.2707 32.4374L 44.2425 32.4519C 44.3457 32.6597 44.341 32.8761 44.2287 33.101C 44.1164 33.3259 43.9005 33.5205 43.581 33.6849C 43.3993 33.7783 43.1845 33.8583 42.9365 33.9247C 42.6886 33.9911 42.4225 34.026 42.1384 34.0295C 41.8543 34.033 41.5613 33.9962 41.2594 33.9192C 40.9575 33.8421 40.6648 33.7053 40.3814 33.5087C 40.0171 33.2559 39.8225 33.0054 39.7976 32.7573C 39.7728 32.5092 39.8534 32.268 40.0395 32.0337C 40.2255 31.7994 40.4832 31.5751 40.8126 31.3608C 41.142 31.1465 41.4822 30.9492 41.8331 30.7687L 41.7116 30.6844C 41.408 30.4737 41.0818 30.3704 40.7331 30.3745C 40.3844 30.3786 40.0691 30.4532 39.7871 30.5982C 39.5491 30.7207 39.3743 30.8757 39.263 31.0634C 39.1517 31.2512 39.1016 31.4359 39.1126 31.6177L 37.7911 31.4048C 37.7916 31.0948 37.8953 30.809 38.1023 30.5477C 38.3093 30.2863 38.5851 30.067 38.9297 29.8897C 39.3307 29.6835 39.722 29.5556 40.1035 29.5061C 40.4849 29.4566 40.8487 29.4611 41.1947 29.5195C 41.5408 29.5779 41.865 29.6761 42.1675 29.8141C 42.4699 29.952 42.7425 30.1052 42.9854 30.2737L 45.9406 32.3243L 44.8881 32.8658L 44.2707 32.4374ZM 42.6528 31.3375L 42.3991 31.468C 42.2174 31.5615 42.0347 31.6656 41.8511 31.7805C 41.6675 31.8953 41.5198 32.0161 41.408 32.1429C 41.2961 32.2698 41.2361 32.3985 41.2279 32.529C 41.2197 32.6596 41.3067 32.7881 41.4889 32.9145C 41.6036 32.9941 41.7233 33.0487 41.8478 33.0784C 41.9724 33.1081 42.0959 33.1199 42.2183 33.114C 42.3407 33.1081 42.4591 33.088 42.5733 33.0537C 42.6875 33.0194 42.7916 32.9781 42.8856 32.9298C 43.274 32.73 43.4572 32.5012 43.435 32.2436C 43.4129 31.986 43.2095 31.7237 42.8249 31.4569L 42.6528 31.3375ZM 42.3985 28.2767L 43.4794 27.7208L 44.2891 28.2826L 44.3079 28.2729C 44.1498 28.0118 44.0959 27.7624 44.146 27.5246C 44.1962 27.2869 44.3716 27.0907 44.6724 26.936C 44.7163 26.9134 44.765 26.8904 44.8185 26.867C 44.872 26.8435 44.9243 26.8268 44.9754 26.8168L 46.0887 27.5893C 45.9932 27.614 45.9155 27.6376 45.8555 27.6603C 45.7955 27.683 45.7404 27.7073 45.6903 27.7331C 45.4334 27.8652 45.2772 28.0067 45.2217 28.1575C 45.1663 28.3083 45.1656 28.4554 45.2195 28.5988C 45.2735 28.7422 45.359 28.8735 45.4761 28.9926C 45.5932 29.1118 45.6956 29.2017 45.7834 29.2626L 48.3843 31.0674L 47.2564 31.6475L 42.3985 28.2767ZM 46.1429 27.5247L 45.1713 26.8506L 45.9608 26.4445L 44.5541 25.4683L 45.6632 24.8979L 47.07 25.8741L 48.198 25.2939L 49.1696 25.9681L 48.0416 26.5482L 50.2984 28.1143C 50.5143 28.2641 50.7291 28.3696 50.9429 28.4308C 51.1566 28.4921 51.3888 28.4583 51.6395 28.3293C 51.7147 28.2907 51.7877 28.2429 51.8586 28.1861C 51.9294 28.1293 51.9824 28.0714 52.0176 28.0126L 53.0065 28.6533C 52.9467 28.733 52.8597 28.8165 52.7455 28.9038C 52.6312 28.9911 52.5114 29.0669 52.3861 29.1314C 52.0853 29.2861 51.7954 29.3802 51.5163 29.4137C 51.2373 29.4471 50.9636 29.4371 50.6954 29.3834C 50.4272 29.3298 50.1699 29.2421 49.9234 29.1203C 49.6769 28.9984 49.4355 28.8556 49.1994 28.6917L 46.9324 27.1186L 46.1429 27.5247ZM 51.1612 26.6801C 50.7767 26.4132 50.4918 26.1379 50.3065 25.8541C 50.1212 25.5704 50.0269 25.2949 50.0236 25.0276C 50.0203 24.7603 50.1083 24.5071 50.2877 24.2682C 50.4671 24.0292 50.7259 23.8227 51.0644 23.6486C 51.4028 23.4746 51.7831 23.3524 52.2054 23.2819C 52.6277 23.2115 53.0598 23.1972 53.5018 23.2389C 53.9438 23.2806 54.3859 23.3772 54.8281 23.5288C 55.2703 23.6805 55.6836 23.8897 56.0682 24.1566C 56.4527 24.4234 56.7393 24.6999 56.9279 24.986C 57.1165 25.2721 57.2141 25.55 57.2208 25.8196C 57.2275 26.0893 57.1445 26.3459 56.9718 26.5896C 56.7992 26.8332 56.5437 27.0421 56.2053 27.2161C 55.8669 27.3901 55.4832 27.51 55.0542 27.5758C 54.6252 27.6415 54.1881 27.6524 53.7427 27.6083C 53.2974 27.5643 52.852 27.4653 52.4064 27.3113C 51.9608 27.1573 51.5458 26.9469 51.1612 26.6801ZM 52.308 26.0903C 52.4969 26.2214 52.7125 26.3388 52.9546 26.4425C 53.1968 26.5462 53.4454 26.6221 53.7003 26.6703C 53.9553 26.7185 54.2115 26.7335 54.4688 26.7153C 54.7262 26.697 54.9677 26.6299 55.1933 26.5139C 55.4189 26.3978 55.566 26.2651 55.6345 26.1158C 55.703 25.9665 55.7163 25.8129 55.6744 25.6551C 55.6325 25.4973 55.5437 25.3392 55.4081 25.1807C 55.2725 25.0222 55.1102 24.8775 54.9213 24.7464C 54.7324 24.6153 54.5185 24.4991 54.2797 24.3977C 54.0409 24.2963 53.7941 24.2216 53.5391 24.1734C 53.2841 24.1252 53.0296 24.1113 52.7756 24.1319C 52.5216 24.1525 52.2818 24.2208 52.0562 24.3368C 51.8305 24.4529 51.6818 24.5844 51.61 24.7314C 51.5381 24.8784 51.5231 25.0308 51.565 25.1886C 51.6069 25.3464 51.694 25.5033 51.8263 25.6595C 51.9585 25.8156 52.1191 25.9592 52.308 26.0903ZM 56.8955 23.7312C 56.5109 23.4643 56.226 23.189 56.0408 22.9052C 55.8555 22.6214 55.7613 22.3459 55.758 22.0786C 55.7547 21.8113 55.8428 21.5582 56.0222 21.3192C 56.2016 21.0803 56.4605 20.8738 56.799 20.6997C 57.1374 20.5257 57.5178 20.4034 57.9401 20.333C 58.3624 20.2626 58.7945 20.2482 59.2365 20.2899C 59.6785 20.3316 60.1206 20.4283 60.5628 20.5799C 61.005 20.7316 61.4184 20.9408 61.8029 21.2077C 62.1875 21.4745 62.474 21.751 62.6626 22.0371C 62.8511 22.3232 62.9488 22.6011 62.9554 22.8707C 62.962 23.1404 62.879 23.397 62.7063 23.6407C 62.5336 23.8843 62.2781 24.0931 61.9397 24.2672C 61.6012 24.4412 61.2175 24.5611 60.7885 24.6269C 60.3595 24.6926 59.9223 24.7035 59.477 24.6594C 59.0316 24.6154 58.5862 24.5164 58.1406 24.3624C 57.695 24.2084 57.28 23.998 56.8955 23.7312ZM 58.0424 23.1414C 58.2313 23.2724 58.4468 23.3898 58.689 23.4935C 58.9311 23.5972 59.1797 23.6732 59.4347 23.7214C 59.6896 23.7696 59.9458 23.7846 60.2032 23.7663C 60.4606 23.7481 60.7021 23.6809 60.9277 23.5649C 61.1534 23.4489 61.3005 23.3162 61.369 23.1669C 61.4375 23.0175 61.4508 22.864 61.4089 22.7062C 61.367 22.5484 61.2783 22.3903 61.1427 22.2318C 61.0071 22.0733 60.8448 21.9285 60.6559 21.7974C 60.467 21.6663 60.2532 21.5501 60.0144 21.4488C 59.7756 21.3474 59.5287 21.2726 59.2737 21.2244C 59.0187 21.1762 58.7642 21.1624 58.5102 21.183C 58.2562 21.2036 58.0163 21.2719 57.7907 21.3879C 57.5651 21.504 57.4163 21.6355 57.3444 21.7825C 57.2725 21.9295 57.2576 22.0818 57.2994 22.2396C 57.3413 22.3974 57.4284 22.5544 57.5606 22.7105C 57.6929 22.8667 57.8535 23.0103 58.0424 23.1414ZM 60.4851 18.9755L 61.5569 18.4244L 62.3362 18.9651C 62.2124 18.7354 62.1721 18.4973 62.2342 18.2412C 62.2963 17.9852 62.4966 17.7701 62.8351 17.5961C 63.1297 17.4446 63.4376 17.3535 63.7589 17.3228C 64.0802 17.2921 64.3993 17.3053 64.7163 17.3624C 65.0332 17.4195 65.341 17.5139 65.6398 17.6455C 65.9386 17.7772 66.2128 17.9296 66.4624 18.1028L 69.4981 20.2096L 68.3698 20.7897L 65.6782 18.9217C 65.5365 18.8234 65.3787 18.7252 65.2047 18.6272C 65.0308 18.5292 64.85 18.453 64.6625 18.3986C 64.4751 18.3442 64.286 18.3171 64.0953 18.3174C 63.9047 18.3176 63.7185 18.3644 63.5367 18.4579C 63.3549 18.5513 63.237 18.6588 63.183 18.7804C 63.1289 18.9019 63.1203 19.0265 63.1571 19.1543C 63.1939 19.2821 63.2696 19.4123 63.3843 19.5448C 63.4989 19.6774 63.6372 19.7999 63.7991 19.9123L 66.4706 21.7662L 65.3423 22.3463L 60.4851 18.9755ZM 66.0574 13.3232L 67.91 12.3709L 74.73 15.0137L 71.3802 10.587L 73.2423 9.62983L 80.406 14.6018L 79.2305 15.2061L 73.4732 11.2103L 77.1898 16.2551L 76.3623 16.6805L 68.6113 13.7096L 74.35 17.7151L 73.2216 18.2952L 66.0574 13.3232ZM 79.1049 12.3126C 78.7204 12.0457 78.4356 11.7704 78.2504 11.4866C 78.0653 11.2029 77.9712 10.9273 77.968 10.66C 77.9649 10.3927 78.0531 10.1396 78.2326 9.90063C 78.4122 9.66166 78.6712 9.45517 79.0098 9.28114C 79.3484 9.1071 79.7289 8.98487 80.1513 8.91444C 80.5737 8.84401 81.0059 8.82965 81.448 8.87135C 81.89 8.91305 82.3322 9.00971 82.7744 9.16134C 83.2166 9.31297 83.6299 9.52222 84.0144 9.78907C 84.3988 10.0559 84.6853 10.3324 84.8738 10.6185C 85.0622 10.9046 85.1597 11.1825 85.1662 11.4521C 85.1727 11.7218 85.0895 11.9784 84.9167 12.2221C 84.7439 12.4657 84.4882 12.6745 84.1496 12.8486C 83.8111 13.0226 83.4272 13.1425 82.9981 13.2083C 82.569 13.274 82.1318 13.2849 81.6863 13.2408C 81.2409 13.1968 80.7955 13.0978 80.3499 12.9438C 79.9044 12.7898 79.4893 12.5794 79.1049 12.3126ZM 80.2522 11.7228C 80.4411 11.8539 80.6566 11.9713 80.8988 12.0749C 81.1409 12.1786 81.3895 12.2546 81.6445 12.3028C 81.8995 12.351 82.1557 12.366 82.4132 12.3477C 82.6706 12.3295 82.9122 12.2624 83.1379 12.1463C 83.3636 12.0303 83.5108 11.8976 83.5794 11.7483C 83.648 11.5989 83.6614 11.4454 83.6196 11.2876C 83.5778 11.1298 83.4891 10.9717 83.3535 10.8132C 83.218 10.6547 83.0558 10.5099 82.8669 10.3789C 82.678 10.2478 82.4642 10.1315 82.2254 10.0302C 81.9866 9.92884 81.7397 9.85407 81.4847 9.80586C 81.2298 9.75765 80.9752 9.74384 80.7211 9.76443C 80.467 9.78502 80.2271 9.85332 80.0014 9.96934C 79.7757 10.0854 79.6268 10.2169 79.5549 10.3639C 79.4829 10.5109 79.4678 10.6633 79.5096 10.8211C 79.5514 10.9788 79.6384 11.1358 79.7706 11.2919C 79.9028 11.4481 80.0634 11.5917 80.2522 11.7228ZM 83.0197 8.56466L 82.0484 7.8905L 82.8385 7.48442L 81.4321 6.50828L 82.542 5.93783L 83.9484 6.91397L 85.0772 6.33386L 86.0485 7.00802L 84.9197 7.58813L 87.1759 9.15417C 87.3917 9.30399 87.6065 9.40951 87.8203 9.47076C 88.034 9.53201 88.2663 9.49819 88.5172 9.36927C 88.5924 9.3306 88.6655 9.28285 88.7364 9.22602C 88.8074 9.1692 88.8604 9.11136 88.8957 9.0525L 89.8843 9.69328C 89.8245 9.77294 89.7373 9.85642 89.623 9.94371C 89.5086 10.031 89.3888 10.1069 89.2633 10.1713C 88.9624 10.326 88.6723 10.4201 88.3931 10.4536C 88.114 10.4871 87.8403 10.477 87.572 10.4234C 87.3038 10.3698 87.0464 10.282 86.8 10.1602C 86.5535 10.0383 86.3122 9.89548 86.0761 9.73162L 83.8098 8.15858L 83.0197 8.56466ZM 85.9143 5.90361L 87.0431 5.3235L 91.8994 8.69432L 90.7706 9.27443L 85.9143 5.90361ZM 84.1052 4.84112C 83.9096 4.70535 83.8067 4.55248 83.7965 4.38253C 83.7863 4.21259 83.8847 4.07444 84.0917 3.96809C 84.2986 3.86174 84.5418 3.82029 84.8211 3.84375C 85.1005 3.86721 85.3448 3.95151 85.5539 4.09665C 85.763 4.24178 85.8661 4.39858 85.8633 4.56707C 85.8605 4.73556 85.7556 4.87298 85.5486 4.97934C 85.3417 5.08569 85.0983 5.12319 84.8184 5.09182C 84.5386 5.06046 84.3008 4.97689 84.1052 4.84112ZM 90.561 6.42442C 90.1766 6.15756 89.8918 5.88226 89.7068 5.59849C 89.5217 5.31472 89.4276 5.03919 89.4245 4.77189C 89.4215 4.5046 89.5097 4.25146 89.6893 4.01249C 89.869 3.77353 90.1281 3.56704 90.4668 3.393C 90.8054 3.21897 91.186 3.09673 91.6084 3.0263C 92.0309 2.95588 92.4632 2.94151 92.9053 2.98321C 93.3473 3.02491 93.7895 3.12157 94.2317 3.27321C 94.6739 3.42484 95.0872 3.63408 95.4716 3.90094C 95.856 4.16779 96.1425 4.44426 96.3309 4.73037C 96.5193 5.01648 96.6167 5.29436 96.6231 5.56399C 96.6296 5.83363 96.5463 6.09027 96.3735 6.33392C 96.2006 6.57757 95.9448 6.78641 95.6061 6.96045C 95.2675 7.13448 94.8836 7.25437 94.4544 7.32011C 94.0253 7.38586 93.588 7.39671 93.1425 7.35267C 92.6971 7.30864 92.2516 7.20963 91.8061 7.05566C 91.3605 6.90169 90.9455 6.69128 90.561 6.42442ZM 91.7087 5.83464C 91.8975 5.96573 92.113 6.08312 92.3552 6.18681C 92.5974 6.2905 92.8459 6.36646 93.1009 6.41467C 93.3559 6.46288 93.6121 6.47786 93.8696 6.45961C 94.1271 6.44136 94.3687 6.37421 94.5945 6.25819C 94.8203 6.14217 94.9674 6.00949 95.0361 5.86015C 95.1047 5.71081 95.1182 5.55726 95.0764 5.39947C 95.0346 5.24169 94.946 5.08354 94.8105 4.92506C 94.6749 4.76658 94.5127 4.62181 94.3239 4.49072C 94.135 4.35963 93.9212 4.24341 93.6824 4.14206C 93.4437 4.0407 93.1967 3.96592 92.9417 3.91771C 92.6867 3.8695 92.4322 3.85569 92.1781 3.87628C 91.924 3.89687 91.684 3.96518 91.4583 4.0812C 91.2325 4.19723 91.0836 4.32874 91.0116 4.47574C 90.9396 4.62273 90.9245 4.77512 90.9662 4.9329C 91.008 5.09069 91.095 5.24766 91.2271 5.40381C 91.3593 5.55995 91.5198 5.70355 91.7087 5.83464ZM 94.1551 1.66879L 95.2276 1.11769L 96.0066 1.65843C 95.883 1.42865 95.8429 1.19057 95.9052 0.934521C 95.9674 0.678471 96.1679 0.463429 96.5066 0.289395C 96.8014 0.137921 97.1095 0.0468279 97.4309 0.0161099C 97.7524 -0.0146071 98.0715 -0.00140852 98.3885 0.0557065C 98.7055 0.112821 99.0133 0.207202 99.3121 0.338833C 99.6109 0.470465 99.885 0.622885 100.135 0.796109L 103.169 2.90287L 102.04 3.48298L 99.3495 1.61499C 99.2079 1.51667 99.0501 1.4185 98.8761 1.32049C 98.7022 1.22248 98.5215 1.14628 98.334 1.0919C 98.1465 1.03752 97.9574 1.01044 97.7667 1.01066C 97.576 1.01088 97.3897 1.05772 97.2078 1.15118C 97.0259 1.24464 96.9079 1.35214 96.8538 1.47366C 96.7996 1.59518 96.7909 1.71983 96.8276 1.84761C 96.8643 1.97539 96.94 2.10556 97.0546 2.23814C 97.1692 2.37072 97.3074 2.49319 97.4693 2.60556L 100.14 4.4595L 99.0111 5.03961L 94.1551 1.66879Z"/>
</defs>
</svg>
