<?xml version="1.0" encoding="UTF-8"?>
<svg width="659px" height="420px" viewBox="0 0 659 420" version="1.1" xmlns="http://www.w3.org/2000/svg" xmlns:xlink="http://www.w3.org/1999/xlink">
    <!-- Generator: Sketch 46.2 (44496) - http://www.bohemiancoding.com/sketch -->
    <title>Group 13</title>
    <desc>Created with Sketch.</desc>
    <defs>
        <path d="M0.737929382,215.787185 L0.737929382,217.048477 L0.849227547,218.110772 L0.849227547,218.110772 C1.01491118,219.692154 1.92286909,221.100454 3.29486171,221.904106 L273.513577,380.186133 L273.513577,380.186133 C278.173001,382.915415 283.939808,382.929617 288.612619,380.223318 L654.288049,168.439155 L654.288046,168.439149 C655.818686,167.552665 656.767046,165.923437 656.781997,164.154683 C656.795997,162.498383 656.783436,161.605177 656.744311,161.475065 C656.686684,161.28342 656.079346,160.130392 654.922297,158.015982 L382.605875,2.55916203 L382.605875,2.55916203 C377.961776,-0.0920069102 372.257468,-0.070280923 367.633698,2.61618652 L0.737929382,215.787185 Z" id="path-1"></path>
        <path d="M3.01637298,221.955712 L273.509274,380.189438 L273.509274,380.189438 C278.171209,382.916591 283.939329,382.926891 288.610974,380.216406 L654.329111,168.027035 L654.329111,168.027035 C656.717623,166.641223 657.530471,163.581529 656.144658,161.193018 C655.70576,160.436557 655.076123,159.808448 654.318599,159.371389 L382.605985,2.60490563 L382.605985,2.60490563 C377.963459,-0.0736319173 372.244502,-0.0715015443 367.603973,2.61049404 L3.03908973,213.310918 L3.03908973,213.310918 C0.64824816,214.692706 -0.169751491,217.751026 1.21203637,220.141868 C1.64599847,220.892731 2.26780016,221.51781 3.01637298,221.955712 Z" id="path-3"></path>
        <path d="M0.51436448,120.303023 L250.909181,267.57957 L250.909181,267.57957 C256.550764,270.897822 263.548932,270.892257 269.185231,267.565038 L463.417438,152.905926 L202.442016,0.717874986 L0.51436448,120.303023 Z" id="path-5"></path>
        <linearGradient x1="18.8766686%" y1="72.7719963%" x2="87.1177863%" y2="72.7719963%" id="linearGradient-7">
            <stop stop-color="#F68F43" offset="0%"></stop>
            <stop stop-color="#FFC193" stop-opacity="0.452219203" offset="100%"></stop>
        </linearGradient>
        <linearGradient x1="43.1579713%" y1="50%" x2="16.5170251%" y2="72.7719963%" id="linearGradient-8">
            <stop stop-color="#CF923D" offset="0%"></stop>
            <stop stop-color="#F5AB73" offset="100%"></stop>
        </linearGradient>
        <linearGradient x1="18.5726931%" y1="72.7719963%" x2="89.617805%" y2="72.7719963%" id="linearGradient-9">
            <stop stop-color="#A55D28" offset="0%"></stop>
            <stop stop-color="#2F1909" offset="100%"></stop>
        </linearGradient>
        <filter x="-20.6%" y="-36.2%" width="141.2%" height="172.4%" filterUnits="objectBoundingBox" id="filter-10">
            <feGaussianBlur stdDeviation="17.8459821" in="SourceGraphic"></feGaussianBlur>
        </filter>
    </defs>
    <g id="Welcome" stroke="none" stroke-width="1" fill="none" fill-rule="evenodd">
        <g id="Desktop-HD" transform="translate(-804.000000, -330.000000)">
            <g id="Group-11" transform="translate(721.000000, 330.000000)">
                <g id="Group-9">
                    <g id="Group-13" transform="translate(83.000000, 0.000000)">
                        <path d="M2.73792938,252.787185 L2.73792938,254.048477 L2.84922755,255.110772 L2.84922755,255.110772 C3.01491118,256.692154 3.92286909,258.100454 5.29486171,258.904106 L275.513577,417.186133 L275.513577,417.186133 C280.173001,419.915415 285.939808,419.929617 290.612619,417.223318 L656.288049,205.439155 L656.288046,205.439149 C657.818686,204.552665 658.767046,202.923437 658.781997,201.154683 C658.795997,199.498383 658.783436,198.605177 658.744311,198.475065 C658.686684,198.28342 658.079346,197.130392 656.922297,195.015982 L384.605875,39.559162 L384.605875,39.559162 C379.961776,36.9079931 374.257468,36.9297191 369.633698,39.6161865 L2.73792938,252.787185 Z" id="Mask-Copy-4" fill="#0C243A"></path>
                        <g id="Path-6" transform="translate(0.000000, 2.000000)">
                            <mask id="mask-2" fill="white">
                                <use xlink:href="#path-1"></use>
                            </mask>
                            <use id="Mask" fill="#C7C7C7" xlink:href="#path-1"></use>
                            <polygon fill="#C97A40" mask="url(#mask-2)" points="20.7461557 225.050362 20.7461557 236.081438 277.409239 390.098758 487.464205 267.567269 487.464205 256.280294"></polygon>
                        </g>
                        <g id="Path-5">
                            <mask id="mask-4" fill="white">
                                <use xlink:href="#path-3"></use>
                            </mask>
                            <use id="Mask" fill="#E3E3E3" xlink:href="#path-3"></use>
                            <polygon fill="#FF974A" mask="url(#mask-4)" points="20.7616118 239.198227 20.7616118 231.548638 226.617718 112.783718 487.579314 264.964751 485.623467 272.55209 280.501351 394.023751"></polygon>
                        </g>
                        <g id="Path-8-Copy" opacity="0.671931612" transform="translate(24.000000, 112.000000)">
                            <mask id="mask-6" fill="white">
                                <use xlink:href="#path-5"></use>
                            </mask>
                            <use id="Mask" fill="#FF933C" xlink:href="#path-5"></use>
                            <g id="Group" mask="url(#mask-6)">
                                <g transform="translate(332.351252, 199.200617) rotate(-30.000000) translate(-332.351252, -199.200617) translate(137.851252, 167.700617)">
                                    <path d="M137.972653,58.5192894 C142.025283,54.5704197 143.652267,50.6908505 142.853604,46.8805817 C141.655609,41.1651785 139.340792,14.1231175 158.303637,14.1231175 C177.266481,14.1231175 221.466405,52.4182847 247.73174,55.5272948 C273.997076,58.6363049 268.039383,24.8834847 285.595817,29.1906073 C300.083743,32.7449321 295.468243,32.0579983 319.362832,46.8805817 C324.251311,49.9130624 336.891328,53.6408731 351.88411,58.5192894 L137.972653,58.5192894 Z" id="Path-11" fill="url(#linearGradient-7)"></path>
                                    <path d="M31.5087901,62.0009417 L0.227908581,37.1940044 C-0.0366655159,26.9762254 0.826427045,21.0755404 2.81718626,19.4919494 C11.3886374,12.6736098 53.916232,36.6130114 81.0598893,37.1940044 C108.203547,37.7749974 91.7055784,26.2918492 116.147819,21.9177208 C140.590059,17.5435923 227.292742,71.3560682 244.667312,52.9937742 C249.007095,48.4072794 272.026307,51.4096686 313.724949,62.0009417 L377.047202,62.0009417 L31.5087901,62.0009417 Z" id="Path-10" fill="url(#linearGradient-8)" style="mix-blend-mode: lighten;"></path>
                                    <path d="M31.9504137,58.5726088 L388.035275,58.5726088 C385.178583,55.8461986 383.290704,54.2635307 382.371636,53.8246052 C357.404569,41.9009153 346.389529,37.2323153 329.597786,36.7092954 C312.806043,36.1862756 323.047521,53.8246052 307.440049,53.8246052 C281.731487,53.8246052 223.751574,1.39858366 195.440542,0.0231908648 C167.12951,-1.35220193 217.866769,58.9277015 174.86485,53.8246052 C131.862931,48.7215089 89.1324308,18.6489426 67.0508525,21.7773669 C44.9692742,24.9057912 49.5749292,47.5546398 41.728641,50.426962 C36.4977822,52.3418435 31.2065555,52.9570734 25.8549607,52.2726516 L31.9504137,58.5726088 Z" id="Path-9" fill="url(#linearGradient-9)" style="mix-blend-mode: screen;"></path>
                                </g>
                            </g>
                            <path d="M206.628934,253.114167 L240.157658,273.299362 L240.157658,273.299362 C245.77803,276.682978 252.794177,276.740889 258.469636,273.450507 L466.464749,152.864105 L424.278229,128.053767 L206.628934,253.114167 Z" fill="#DA7C37" opacity="0.62669837" filter="url(#filter-10)" mask="url(#mask-6)"></path>
                        </g>
                        <ellipse id="Oval-7" fill="#D72929" cx="21" cy="217" rx="3" ry="2"></ellipse>
                        <ellipse id="Oval-7-Copy" fill="#E5BE2B" cx="29" cy="212" rx="3" ry="2"></ellipse>
                        <ellipse id="Oval-7-Copy-4" fill="#08C42A" cx="37" cy="208" rx="3" ry="2"></ellipse>
                    </g>
                </g>
            </g>
        </g>
    </g>
</svg>