<svg width="70" height="76" viewBox="0 0 70 76" version="1.1" xmlns="http://www.w3.org/2000/svg" xmlns:xlink="http://www.w3.org/1999/xlink">
<title>Path 12 Copy 9</title>
<desc>Created using Figma</desc>
<g id="Canvas" transform="translate(229 218)">
<g id="Path 12 Copy 9">
<g id="Path 7 Copy 3">
<use xlink:href="#path0_fill" transform="matrix(0.529919 -0.848048 -0.848048 -0.529919 -197.283 -144.24)" fill="#EFEFEF"/>
</g>
<mask id="mask0_alpha" mask-type="alpha">
<g id="mask 24">
<g id="Vector">
<use xlink:href="#path1_fill" transform="matrix(0.529919 -0.848048 -0.848048 -0.529919 -193.737 -142.03)" fill="#FFFFFF"/>
</g>
</g>
</mask>
<g id="Mask" mask="url(#mask0_alpha)">
<use xlink:href="#path1_fill" transform="matrix(0.529919 -0.848048 -0.848048 -0.529919 -193.737 -142.03)" fill="#75B54E"/>
</g>
<g id="Path 13" mask="url(#mask0_alpha)">
<use xlink:href="#path2_fill" transform="matrix(0.529919 -0.848048 -0.848048 -0.529919 -192.646 -138.389)" fill="#FFFFFF"/>
</g>
<g id="Path 13 Copy" mask="url(#mask0_alpha)">
<use xlink:href="#path3_fill" transform="matrix(0.529919 -0.848048 -0.848048 -0.529919 -198.901 -152.91)" fill="#D7D7D7"/>
</g>
<g id="Aa" mask="url(#mask0_alpha)">
<use xlink:href="#path4_fill" transform="translate(-200.388 -189.598)" fill="#F7E7DB"/>
</g>
</g>
</g>
<defs>
<path id="path0_fill" fill-rule="evenodd" d="M 33.4133 36.095L 62.3945 20.3531L 63.0213 19.9317L 63.0213 19.9317C 63.2567 19.7735 63.4138 19.5227 63.4535 19.2419C 63.88 16.2287 64.0516 14.6981 63.9684 14.6501C 63.8823 14.6005 53.415 9.77817 32.5665 0.183195L 32.5665 0.183175C 32.048 -0.0554336 31.4523 -0.0611755 30.9294 0.167395L 2.33953e-08 13.6856L 0.238313 17.1056C 0.281862 17.7305 0.633378 18.2929 1.17609 18.6059L 31.4595 36.0701C 32.0621 36.4176 32.802 36.427 33.4133 36.095Z"/>
<path id="path1_fill" d="M 33.5316 36.0465L 63.4581 19.7553C 63.9432 19.4913 64.1223 18.884 63.8583 18.3989C 63.7696 18.236 63.6373 18.1009 63.4763 18.0089L 32.4332 0.263665C 31.8317 -0.0801722 31.0951 -0.0882075 30.4862 0.242427L 0.522976 16.5136C 0.0376356 16.7772 -0.142154 17.3843 0.121404 17.8696C 0.2101 18.0329 0.34256 18.1683 0.503919 18.2606L 31.5828 36.0262C 32.185 36.3704 32.9224 36.3781 33.5316 36.0465Z"/>
<path id="path2_fill" fill-rule="evenodd" d="M 10.1993 26L 45 6.52326L 33.464 0L 0 20.2326L 10.1993 26Z"/>
<path id="path3_fill" fill-rule="evenodd" d="M 2.64845 8L 15 1.40071L 12.4197 0L 0 6.56227L 2.64845 8Z"/>
<path id="path4_fill" fill-rule="evenodd" d="M 9.57444 9.56766L 5.20713 11.9556L 5.13209 11.4174C 5.33463 11.2887 5.56941 11.1141 5.83634 10.8935C 6.10303 10.6727 6.22902 10.5095 6.21453 10.4038C 6.2095 10.3671 6.20101 10.3273 6.18905 10.2844C 6.1771 10.2416 6.15255 10.1883 6.1154 10.1245L 5.15544 8.47311L 2.34643 9.96457C 2.30636 10.1869 2.26401 10.445 2.21942 10.7388C 2.17499 11.0327 2.13753 11.2935 2.10699 11.5213C 2.06942 11.817 2.05194 12.0259 2.05444 12.1479C 2.05697 12.27 2.06145 12.354 2.06787 12.4C 2.08843 12.5473 2.19914 12.6237 2.39988 12.6293C 2.60049 12.6349 2.92051 12.5463 3.35949 12.3634L 3.43527 12.9021L 0.0771425 14.6616L -5.91211e-06 14.1222C 0.126424 14.0469 0.267115 13.9481 0.422037 13.8258C 0.576879 13.7034 0.695721 13.5835 0.778635 13.4663C 0.921311 13.2734 1.03628 13.0678 1.12362 12.8494C 1.21101 12.6311 1.27598 12.3924 1.31858 12.1335C 1.589 10.6094 1.86449 9.08492 2.14509 7.56009C 2.43014 6.0377 2.75071 4.36108 3.1083 2.53098L 4.25749 1.92368C 5.26453 3.71532 6.06074 5.13752 6.64224 6.18817C 7.22647 7.24033 7.72213 8.10802 8.12802 8.79062C 8.19536 8.90139 8.27417 8.99232 8.36444 9.06342C 8.4547 9.13451 8.57607 9.1823 8.72848 9.20673C 8.84337 9.22221 8.97256 9.20996 9.11605 9.17001C 9.25947 9.13003 9.38786 9.08351 9.50123 9.03043L 9.57444 9.56766ZM 4.83221 7.91861L 3.20547 5.02539L 2.48629 9.16284L 4.83221 7.91861ZM 16.4497 5.48593C 16.3012 5.66672 16.1226 5.85762 15.9139 6.05862C 15.705 6.25955 15.4783 6.43114 15.2337 6.57339C 14.7841 6.8342 14.4415 6.94214 14.2066 6.89746C 13.9715 6.85269 13.7946 6.69663 13.6762 6.42941L 13.6431 6.44839C 13.5386 6.67583 13.4358 6.87771 13.3345 7.05408C 13.2332 7.23044 13.1215 7.3955 12.9993 7.54922C 12.8396 7.74899 12.6827 7.91866 12.5287 8.05823C 12.3746 8.19775 12.1533 8.34928 11.8647 8.51279C 11.435 8.75561 11.0462 8.8053 10.6988 8.66199C 10.3511 8.51853 10.1424 8.18759 10.0732 7.66959C 10.0338 7.37179 10.034 7.10007 10.0738 6.85434C 10.1138 6.60867 10.1849 6.37147 10.2872 6.14273C 10.3801 5.93397 10.494 5.7405 10.6288 5.56226C 10.7635 5.38398 10.913 5.20474 11.0773 5.02448C 11.3925 4.68587 11.7734 4.30373 12.2198 3.87793C 12.6655 3.45176 12.9872 3.1138 13.1853 2.86426L 13.1049 2.20834C 13.0911 2.09453 13.0655 1.94852 13.0282 1.77036C 12.9909 1.59224 12.9407 1.45318 12.8774 1.35315C 12.8083 1.23705 12.7124 1.16049 12.5896 1.12341C 12.4667 1.08632 12.3146 1.11908 12.1331 1.22168C 11.9701 1.31375 11.8371 1.41901 11.7345 1.53751C 11.6318 1.65599 11.5506 1.76358 11.4908 1.86029C 11.5129 1.94499 11.5611 2.066 11.6356 2.2233C 11.7102 2.38063 11.758 2.54581 11.7791 2.71884C 11.7886 2.79626 11.7838 2.90246 11.7646 3.03745C 11.7456 3.17245 11.7087 3.2919 11.6541 3.39581C 11.5801 3.53506 11.4933 3.65953 11.3937 3.76923C 11.2941 3.8789 11.1347 3.99529 10.9153 4.11835C 10.6026 4.29337 10.3544 4.33314 10.1709 4.23782C 9.98732 4.14247 9.87712 3.94662 9.84049 3.65036C 9.80912 3.39523 9.86428 3.1202 10.0059 2.82523C 10.1475 2.53028 10.3299 2.25034 10.5527 1.98535C 10.7712 1.71783 11.0286 1.46112 11.3247 1.21515C 11.6205 0.969004 11.8981 0.77272 12.1576 0.626282C 12.5168 0.423121 12.8489 0.262559 13.1542 0.144684C 13.459 0.026604 13.7406 -0.0192247 13.9989 0.0072633C 14.2454 0.0354193 14.4534 0.161946 14.623 0.386932C 14.7927 0.611973 14.9067 0.967766 14.9653 1.45456C 15.028 1.96902 15.0949 2.58433 15.1667 3.30078C 15.2397 4.01795 15.2911 4.48877 15.3199 4.71277C 15.3465 4.91854 15.3922 5.06661 15.4569 5.15689C 15.5217 5.24718 15.609 5.29234 15.7189 5.29233C 15.7857 5.2928 15.886 5.25765 16.0198 5.18686C 16.1536 5.11603 16.275 5.04863 16.3841 4.98471L 16.4497 5.48593ZM 13.2635 3.49341C 13.0678 3.69786 12.8755 3.91375 12.6865 4.14108C 12.4974 4.36836 12.346 4.58032 12.2322 4.77701C 12.1116 4.98246 12.0251 5.20656 11.9729 5.44937C 11.9208 5.69224 11.9123 5.94862 11.9474 6.21857C 11.9942 6.5756 12.0939 6.79714 12.2464 6.88303C 12.3988 6.96889 12.5711 6.95721 12.763 6.84796C 12.9658 6.73233 13.1258 6.58558 13.243 6.40781C 13.3601 6.23002 13.4585 6.03716 13.5381 5.82922L 13.2635 3.49341Z"/>
</defs>
</svg>
