<svg width="70" height="76" viewBox="0 0 70 76" version="1.1" xmlns="http://www.w3.org/2000/svg" xmlns:xlink="http://www.w3.org/1999/xlink">
<title>Path 12 Copy 10</title>
<desc>Created using Figma</desc>
<g id="Canvas" transform="translate(186 149)">
<g id="Path 12 Copy 10">
<g id="Path 7 Copy 3">
<use xlink:href="#path0_fill" transform="matrix(0.529919 -0.848048 -0.848048 -0.529919 -154.283 -75.2396)" fill="#EFEFEF"/>
</g>
<mask id="mask0_alpha" mask-type="alpha">
<g id="mask 26">
<g id="Vector">
<use xlink:href="#path1_fill" transform="matrix(0.529919 -0.848048 -0.848048 -0.529919 -150.737 -73.03)" fill="#FFFFFF"/>
</g>
</g>
</mask>
<g id="Mask" mask="url(#mask0_alpha)">
<use xlink:href="#path1_fill" transform="matrix(0.529919 -0.848048 -0.848048 -0.529919 -150.737 -73.03)" fill="#CED2CD"/>
</g>
<g id="Path 13" mask="url(#mask0_alpha)">
<use xlink:href="#path2_fill" transform="matrix(0.529919 -0.848048 -0.848048 -0.529919 -149.646 -69.3888)" fill="#FFFFFF"/>
</g>
<g id="Path 13 Copy" mask="url(#mask0_alpha)">
<use xlink:href="#path3_fill" transform="matrix(0.529919 -0.848048 -0.848048 -0.529919 -155.901 -83.9102)" fill="#D7D7D7"/>
</g>
<g id="Oval 8" mask="url(#mask0_alpha)">
<use xlink:href="#path4_fill" transform="matrix(0.5 -0.866025 -0.866025 -0.5 -154.799 -103.805)" fill="#FFFFFF"/>
</g>
<g id="Star" mask="url(#mask0_alpha)">
<use xlink:href="#path5_fill" transform="matrix(0.573576 -0.819152 -0.819152 -0.573576 -142.455 -110.03)" fill="#FFFFFF"/>
</g>
</g>
</g>
<defs>
<path id="path0_fill" fill-rule="evenodd" d="M 33.4133 36.095L 62.3945 20.3531L 63.0213 19.9317L 63.0213 19.9317C 63.2567 19.7735 63.4138 19.5227 63.4535 19.2419C 63.88 16.2287 64.0516 14.6981 63.9684 14.6501C 63.8823 14.6005 53.415 9.77817 32.5665 0.183195L 32.5665 0.183175C 32.048 -0.0554336 31.4523 -0.0611755 30.9294 0.167395L 2.33953e-08 13.6856L 0.238313 17.1056C 0.281862 17.7305 0.633378 18.2929 1.17609 18.6059L 31.4595 36.0701C 32.0621 36.4176 32.802 36.427 33.4133 36.095Z"/>
<path id="path1_fill" d="M 33.5316 36.0465L 63.4581 19.7553C 63.9432 19.4913 64.1223 18.884 63.8583 18.3989C 63.7696 18.236 63.6373 18.1009 63.4763 18.0089L 32.4332 0.263665C 31.8317 -0.0801722 31.0951 -0.0882075 30.4862 0.242427L 0.522976 16.5136C 0.0376356 16.7772 -0.142154 17.3843 0.121404 17.8696C 0.2101 18.0329 0.34256 18.1683 0.503919 18.2606L 31.5828 36.0262C 32.185 36.3704 32.9224 36.3781 33.5316 36.0465Z"/>
<path id="path2_fill" fill-rule="evenodd" d="M 10.1993 26L 45 6.52326L 33.464 0L 0 20.2326L 10.1993 26Z"/>
<path id="path3_fill" fill-rule="evenodd" d="M 2.64845 8L 15 1.40071L 12.4197 0L 0 6.56227L 2.64845 8Z"/>
<path id="path4_fill" d="M 5.78152 6.72316C 8.97456 6.72316 11.563 5.21813 11.563 3.36158C 11.563 1.50503 8.97456 0 5.78152 0C 2.58847 0 0 1.50503 0 3.36158C 0 5.21813 2.58847 6.72316 5.78152 6.72316Z"/>
<path id="path5_fill" fill-rule="evenodd" d="M 6.07157 6.26067L 1.47303 6.90576L 2.97406 4.29711L -1.2022e-06 1.84091L 4.87987 2.16311L 7.64035 -1.62373e-06L 9.15523 2.80779L 13.8354 3.92711L 9.89175 5.34021L 10.0238 8.19511L 6.07157 6.26067Z"/>
</defs>
</svg>
