<svg width="25" height="13" viewBox="0 0 25 13" version="1.1" xmlns="http://www.w3.org/2000/svg" xmlns:xlink="http://www.w3.org/1999/xlink">
<title>MIKA</title>
<desc>Created using Figma</desc>
<g id="Canvas" transform="translate(49 264)">
<g id="MIKA">
<use xlink:href="#path0_fill" transform="matrix(0.999848 -0.0174524 0.0174524 0.999848 -48.5118 -263.189)" fill="#C77233"/>
</g>
</g>
<defs>
<path id="path0_fill" fill-rule="evenodd" d="M 7.91932 10.177L 4.76451 8.13309L 6.94139 10.69L 6.30012 11.0263L 2.16734 9.4953L 5.34892 11.5252L 4.48854 11.9765L 1.26777e-05 9.10392L 1.29857 8.42279L 5.03718 9.81357L 5.05858 9.80234L 3.00328 7.52866L 4.32322 6.83634L 8.81178 9.70893L 7.91932 10.177ZM 11.1952 8.45883L 6.70665 5.58625L 7.62578 5.10413L 12.1143 7.97672L 11.1952 8.45883ZM 16.8116 5.51294L 13.3394 4.92743L 15.3955 6.25574L 14.4977 6.72663L 10.0092 3.85404L 10.907 3.38315L 12.7328 4.55164L 12.275 2.66559L 13.4186 2.06577L 13.8555 4.24335L 18.0033 4.88791L 16.8116 5.51294ZM 22.4014 2.58109L 21.2262 2.17127L 19.762 2.93927L 20.3653 3.64899L 19.3714 4.17035L 16.47 0.465274L 17.3571 3.17578e-06L 23.4167 2.04853L 22.4014 2.58109ZM 18.0957 1.00788L 19.1553 2.2461L 20.1066 1.74717L 18.0957 1.00788Z"/>
</defs>
</svg>
